REM DIRINDEX 1\2,1\3,1\4,1\5
REM DIRNAME "folder01","folder02","folder03","folder04","folder05"
TITLE ""
FILE "1Q_t_1701-1709.mp3" MP3
  TRACK 01 AUDIO
    TITLE "0:"
    INDEX 01 00:00:00
  TRACK 02 AUDIO
    TITLE "2:cjc172_6095"
    INDEX 01 00:00:12
  TRACK 03 AUDIO
    TITLE "0:"
    INDEX 01 00:01:57
  TRACK 04 AUDIO
    TITLE "2:cjc172_6096"
    INDEX 01 00:02:37
  TRACK 05 AUDIO
    TITLE "0:"
    INDEX 01 00:03:46
  TRACK 06 AUDIO
    TITLE "3:cjc172_6097"
    INDEX 01 00:04:18
  TRACK 07 AUDIO
    TITLE "0:"
    INDEX 01 00:05:47
  TRACK 08 AUDIO
    TITLE "4:cjc172_6098"
    INDEX 01 00:05:55
  TRACK 09 AUDIO
    TITLE "0:"
    INDEX 01 00:07:22
  TRACK 10 AUDIO
    TITLE "5:cjc172_6099"
    INDEX 01 00:07:32
  TRACK 11 AUDIO
    TITLE "0:"
    INDEX 01 00:11:39
  TRACK 12 AUDIO
    TITLE "3:cjc172_6100"
    INDEX 01 00:12:12
  TRACK 13 AUDIO
    TITLE "0:"
    INDEX 01 00:13:34
  TRACK 14 AUDIO
    TITLE "4:cjc172_6101"
    INDEX 01 00:13:46
  TRACK 15 AUDIO
    TITLE "0:"
    INDEX 01 00:18:16
  TRACK 16 AUDIO
    TITLE "5:cjc172_6102"
    INDEX 01 00:18:24
  TRACK 17 AUDIO
    TITLE "0:"
    INDEX 01 00:22:75
  TRACK 18 AUDIO
    TITLE "3:cjc172_6103"
    INDEX 01 00:23:47
  TRACK 19 AUDIO
    TITLE "0:"
    INDEX 01 00:24:62
  TRACK 20 AUDIO
    TITLE "4:cjc172_6104"
    INDEX 01 00:25:02
  TRACK 21 AUDIO
    TITLE "0:"
    INDEX 01 00:28:09
  TRACK 22 AUDIO
    TITLE "5:cjc172_6105"
    INDEX 01 00:28:16
  TRACK 23 AUDIO
    TITLE "0:"
    INDEX 01 00:33:31
  TRACK 24 AUDIO
    TITLE "3:cjc172_6106"
    INDEX 01 00:34:03
  TRACK 25 AUDIO
    TITLE "0:"
    INDEX 01 00:35:15
  TRACK 26 AUDIO
    TITLE "4:cjc172_6107"
    INDEX 01 00:35:24
  TRACK 27 AUDIO
    TITLE "0:"
    INDEX 01 00:38:25
  TRACK 28 AUDIO
    TITLE "5:cjc172_6108"
    INDEX 01 00:38:34
  TRACK 29 AUDIO
    TITLE "0:"
    INDEX 01 00:43:26
  TRACK 30 AUDIO
    TITLE "3:cjc172_6109"
    INDEX 01 00:43:75
  TRACK 31 AUDIO
    TITLE "0:"
    INDEX 01 00:45:13
  TRACK 32 AUDIO
    TITLE "4:cjc172_6110"
    INDEX 01 00:45:25
  TRACK 33 AUDIO
    TITLE "0:"
    INDEX 01 00:49:05
  TRACK 34 AUDIO
    TITLE "5:cjc172_6111"
    INDEX 01 00:49:15
  TRACK 35 AUDIO
    TITLE "0:"
    INDEX 01 00:53:26
  TRACK 36 AUDIO
    TITLE "3:cjc172_6112"
    INDEX 01 00:53:73
  TRACK 37 AUDIO
    TITLE "0:"
    INDEX 01 00:54:75
  TRACK 38 AUDIO
    TITLE "4:cjc172_6113"
    INDEX 01 00:55:15
  TRACK 39 AUDIO
    TITLE "0:"
    INDEX 01 00:56:50
  TRACK 40 AUDIO
    TITLE "5:cjc172_6114"
    INDEX 01 00:56:60
  TRACK 41 AUDIO
    TITLE "0:"
    INDEX 01 01:01:12
  TRACK 42 AUDIO
    TITLE "3:cjc172_6115"
    INDEX 01 01:01:61
  TRACK 43 AUDIO
    TITLE "0:"
    INDEX 01 01:03:01
  TRACK 44 AUDIO
    TITLE "4:cjc172_6116"
    INDEX 01 01:03:13
  TRACK 45 AUDIO
    TITLE "0:"
    INDEX 01 01:04:38
  TRACK 46 AUDIO
    TITLE "5:cjc172_6117"
    INDEX 01 01:04:46
  TRACK 47 AUDIO
    TITLE "0:"
    INDEX 01 01:09:29
  TRACK 48 AUDIO
    TITLE "3:cjc172_6118"
    INDEX 01 01:10:01
  TRACK 49 AUDIO
    TITLE "0:"
    INDEX 01 01:11:01
  TRACK 50 AUDIO
    TITLE "4:cjc172_6119"
    INDEX 01 01:11:12
  TRACK 51 AUDIO
    TITLE "0:"
    INDEX 01 01:13:74
  TRACK 52 AUDIO
    TITLE "5:cjc172_6120"
    INDEX 01 01:14:09
  TRACK 53 AUDIO
    TITLE "0:"
    INDEX 01 01:18:57
  TRACK 54 AUDIO
    TITLE "3:cjc172_6121"
    INDEX 01 01:19:27
  TRACK 55 AUDIO
    TITLE "0:"
    INDEX 01 01:20:60
  TRACK 56 AUDIO
    TITLE "4:cjc172_6122"
    INDEX 01 01:20:70
  TRACK 57 AUDIO
    TITLE "0:"
    INDEX 01 01:22:49
  TRACK 58 AUDIO
    TITLE "5:cjc172_6123"
    INDEX 01 01:22:57
  TRACK 59 AUDIO
    TITLE "0:"
    INDEX 01 01:27:35
